<svg xmlns:dc="http://purl.org/dc/elements/1.1/" xmlns:cc="http://creativecommons.org/ns#" xmlns:rdf="http://www.w3.org/1999/02/22-rdf-syntax-ns#" xmlns:svg="http://www.w3.org/2000/svg" xmlns="http://www.w3.org/2000/svg" viewBox="0 0 537.90533 140.57201" height="140.57201" width="537.90533" xml:space="preserve" id="svg2" version="1.1" xmlns:xlink="http://www.w3.org/1999/xlink">
 <metadata id="metadata8">
  <rdf:RDF>
   <cc:Work rdf:about="">
    <dc:format>
     image/svg+xml
    </dc:format>
    <dc:type rdf:resource="http://purl.org/dc/dcmitype/StillImage">
    </dc:type>
   </cc:Work>
  </rdf:RDF>
 </metadata>
 <defs id="defs6">
  <clipPath id="clipPath18" clipPathUnits="userSpaceOnUse">
   <path id="path16" d="M 0,105.429 H 403.429 V 0 H 0 Z">
   </path>
  </clipPath>
  <clipPath id="clipPath58" clipPathUnits="userSpaceOnUse">
   <path id="path56" d="m 46.949,96.931 c -1.202,-0.428 -2.145,-1.369 -2.66,-2.567 v 0 l -5.234,-9.498 c -7.722,-1.198 -14.5,-2.225 -20.249,-3.081 v 0 C 13.058,80.929 9.797,80.416 9.025,80.245 v 0 C 6.88,79.988 5.422,79.218 4.649,77.849 v 0 l -1.2,-2.054 V 11.788 C 3.705,10.248 4.307,9.307 5.422,8.879 v 0 L 7.051,8.281 18.806,8.195 C 26.699,8.109 35.451,8.109 45.06,8.109 v 0 h 27.027 c 8.323,0 12.956,0 13.985,0.086 v 0 c 1.974,0.257 3.261,1.112 3.861,2.567 v 0 l 0.859,2.225 v 0.428 h 5.576 c 2.317,0 3.776,1.112 4.291,3.338 v 0 l 0.772,3.336 3.174,30.463 c 2.059,0.342 4.119,0.77 6.178,1.283 v 0 l 2.574,0.685 c 5.491,1.711 8.322,4.107 8.665,7.36 v 0 l 0.515,4.535 c -0.343,3.935 -1.887,5.733 -4.633,5.304 v 0 l -4.032,-0.598 c -3.004,-1.027 -4.891,-1.455 -5.835,-1.37 v 0 l -1.373,0.172 1.287,15.402 c -0.257,3.167 -1.716,4.792 -4.547,4.878 v 0 c -1.888,0.171 -3.689,0.085 -5.491,-0.086 v 0 1.968 c -0.172,2.482 -1.03,3.851 -2.66,3.851 v 0 l -2.403,0.085 -3.088,-0.513 c -2.059,-0.342 -4.805,-0.856 -8.323,-1.454 v 0 C 78.008,91.369 73.975,90.77 69.428,90 v 0 C 64.88,89.23 60.161,88.459 55.184,87.604 v 0 -34.742 l -2.402,-9.498 3.947,7.53 14.758,27.982 c 0.515,1.027 1.287,1.882 2.23,2.567 v 0 c 0.944,0.685 2.059,1.027 3.175,1.027 v 0 c 1.545,0.085 3.003,-0.514 4.204,-1.541 v 0 c 1.202,-1.026 1.802,-2.481 1.802,-4.021 v 0 -47.834 c 0,-1.54 -0.687,-2.996 -1.802,-3.936 v 0 C 79.98,24.111 78.437,23.512 76.892,23.512 v 0 c -1.544,0 -3.003,0.599 -4.118,1.626 v 0 c -1.116,1.027 -1.802,2.396 -1.802,3.936 v 0 24.901 L 55.958,25.138 c -0.774,-0.77 -1.459,-1.626 -2.06,-2.482 v 0 c -1.029,-1.368 -2.659,-2.225 -4.375,-2.225 v 0 c -1.545,0 -3.09,0.514 -4.376,1.541 v 0 c -1.287,0.94 -1.974,2.482 -1.974,4.022 v 0 42.271 L 16.662,16.837 C 16.147,15.554 15.031,14.612 13.658,14.27 v 0 c -1.287,-0.428 -2.659,-0.171 -3.775,0.6 v 0 C 8.51,15.468 7.481,16.581 7.051,18.036 v 0 c -0.513,1.454 -0.342,3.08 0.43,4.364 v 0 l 37.923,70.509 c 0.515,0.941 1.287,1.797 2.231,2.311 v 0 c 0.858,0.513 1.888,0.77 2.917,0.77 v 0 c 0.687,0 1.373,-0.172 1.973,-0.428 v 0 c 0.772,-0.257 1.459,-0.599 1.974,-1.198 v 0 c -0.343,0.771 -0.944,1.454 -1.717,1.883 v 0 c -0.686,0.427 -1.458,0.684 -2.23,0.855 v 0 c -0.519,0.185 -1.055,0.274 -1.585,0.274 v 0 c -0.697,0 -1.385,-0.154 -2.018,-0.445 m 50.964,-9.412 c 2.316,-1.114 3.603,-2.226 3.861,-3.423 v 0 l 0.257,-1.712 -0.944,-8.984 C 100.401,67.409 99.8,60.82 99.028,53.462 v 0 C 98.256,46.102 97.57,39.256 96.883,32.839 v 0 C 96.197,26.421 95.768,22.828 95.596,21.972 v 0 c -0.172,-1.198 -0.772,-1.969 -1.716,-2.14 v 0 c -0.858,-0.171 -1.802,-0.256 -2.66,-0.256 v 0 z m 13.213,-28.753 c -0.858,0.856 -1.287,1.969 -1.287,3.167 v 0 c 0,2.31 1.887,4.278 4.29,4.278 v 0 c 1.201,0 2.317,-0.427 3.174,-1.283 v 0 c 0.858,-0.771 1.287,-1.883 1.287,-2.995 v 0 c 0.086,-1.113 -0.429,-2.311 -1.287,-3.167 v 0 c -0.857,-0.855 -1.973,-1.283 -3.174,-1.283 v 0 c -1.116,0 -2.231,0.428 -3.003,1.283 m 0.772,3.252 c 0,-0.684 0.257,-1.283 0.772,-1.711 v 0 c 0.343,-0.427 0.944,-0.77 1.545,-0.77 v 0 c 1.286,0 2.316,1.112 2.402,2.396 v 0 c 0,0.599 -0.258,1.198 -0.687,1.626 v 0 c -0.429,0.513 -1.115,0.769 -1.715,0.769 v 0 c -1.202,-0.171 -2.145,-1.112 -2.317,-2.31">
   </path>
  </clipPath>
 </defs>
 <g transform="matrix(1.3333333,0,0,-1.3333333,0,140.572)" id="g10">
  <g id="g12">
   <g clip-path="url(#clipPath18)" id="g14">
    <g transform="translate(118.3844,61.8539)" id="g20">
     <path id="path22" style="fill:#0044cc;fill-opacity:1;fill-rule:nonzero;stroke:none" d="m 0,0 c 0,1.11 -0.428,2.221 -1.285,2.99 -0.856,0.854 -1.969,1.281 -3.169,1.281 -2.398,0 -4.282,-1.965 -4.282,-4.271 0,-1.196 0.428,-2.306 1.285,-3.161 0.771,-0.854 1.884,-1.281 2.997,-1.281 1.2,0 2.313,0.427 3.169,1.281 C -0.428,-2.306 0.085,-1.11 0,0 m -20.641,25.54 -6.68,-67.821 c 0.857,0 1.799,0.085 2.655,0.256 0.942,0.17 1.541,0.939 1.713,2.135 0.171,0.855 0.599,4.442 1.285,10.848 0.685,6.406 1.37,13.24 2.141,20.586 0.771,7.346 1.37,13.923 2.055,19.902 l 0.942,8.969 -0.257,1.708 c -0.256,1.196 -1.541,2.306 -3.854,3.417 m 15.416,-34.936 -2.569,-0.683 c -2.055,-0.513 -4.111,-0.94 -6.166,-1.281 l -3.169,-30.409 -0.771,-3.332 c -0.514,-2.22 -1.97,-3.331 -4.282,-3.331 h -5.567 v -0.426 l -0.856,-2.221 c -0.6,-1.452 -1.885,-2.307 -3.854,-2.563 -1.028,-0.086 -5.653,-0.086 -13.961,-0.086 h -26.978 c -9.592,0 -18.328,0 -26.207,0.086 l -11.734,0.085 -1.627,0.598 c -1.114,0.428 -1.713,1.367 -1.97,2.904 v 63.892 l 1.199,2.051 c 0.771,1.366 2.227,2.135 4.368,2.391 0.77,0.171 4.025,0.683 9.764,1.538 5.738,0.854 12.503,1.879 20.212,3.075 l 5.224,9.481 c 0.514,1.196 1.456,2.135 2.655,2.563 1.114,0.512 2.398,0.597 3.597,0.17 0.771,-0.17 1.542,-0.427 2.227,-0.854 0.771,-0.427 1.37,-1.11 1.713,-1.879 -0.514,0.598 -1.199,0.94 -1.97,1.196 -0.599,0.256 -1.284,0.427 -1.97,0.427 -1.027,0 -2.055,-0.256 -2.912,-0.769 -0.942,-0.512 -1.713,-1.367 -2.227,-2.306 l -37.855,-70.384 c -0.771,-1.281 -0.942,-2.904 -0.428,-4.356 0.428,-1.452 1.456,-2.563 2.826,-3.161 1.114,-0.768 2.484,-1.025 3.769,-0.597 1.37,0.342 2.483,1.281 2.997,2.562 l 26.465,51.336 v -42.196 c 0,-1.538 0.685,-3.075 1.969,-4.015 1.285,-1.025 2.827,-1.538 4.369,-1.538 1.713,0 3.34,0.855 4.367,2.222 0.6,0.853 1.285,1.708 2.056,2.476 l 14.988,28.786 V -32.8 c 0,-1.538 0.685,-2.904 1.798,-3.93 1.114,-1.024 2.569,-1.623 4.111,-1.623 1.542,0 3.083,0.599 4.197,1.623 1.114,0.94 1.799,2.392 1.799,3.93 v 47.748 c 0,1.537 -0.6,2.989 -1.799,4.014 -1.199,1.025 -2.655,1.623 -4.197,1.538 -1.113,0 -2.227,-0.342 -3.168,-1.025 -0.943,-0.683 -1.713,-1.538 -2.228,-2.562 l -14.73,-27.932 -3.94,-7.516 2.398,9.481 v 34.679 c 4.967,0.854 9.678,1.623 14.217,2.392 4.539,0.769 8.565,1.366 11.991,2.05 3.511,0.598 6.251,1.11 8.307,1.452 l 3.083,0.512 2.399,-0.085 c 1.627,0 2.483,-1.367 2.654,-3.844 v -1.964 c 1.799,0.171 3.598,0.256 5.482,0.085 2.826,-0.085 4.282,-1.708 4.539,-4.869 l -1.285,-15.375 1.371,-0.171 c 0.942,-0.085 2.826,0.342 5.824,1.367 l 4.025,0.598 C 2.056,8.2 3.597,6.406 3.939,2.477 L 3.426,-2.05 C 3.083,-5.296 0.257,-7.687 -5.225,-9.396 M -1.97,0 c -0.086,-1.281 -1.113,-2.392 -2.398,-2.392 -0.599,0 -1.199,0.342 -1.542,0.769 -0.513,0.427 -0.77,1.025 -0.77,1.708 0.171,1.196 1.113,2.136 2.312,2.307 0.599,0 1.285,-0.257 1.713,-0.769 C -2.227,1.196 -1.97,0.598 -1.97,0">
     </path>
    </g>
    <g transform="translate(113.2457,35.8871)" id="g24">
     <path id="path26" style="fill:#0044cc;fill-opacity:1;fill-rule:nonzero;stroke:none" d="m 0,0 v 0.171 c 0,12.129 9.678,22.123 22.696,22.123 13.018,0 22.61,-9.823 22.61,-21.952 V 0.171 c 0,-12.044 -9.678,-22.038 -22.782,-22.038 C 9.592,-21.867 0,-12.044 0,0 m 35.543,0 v 0.171 c 0,7.432 -5.396,13.581 -13.019,13.581 -7.793,0 -12.76,-6.065 -12.76,-13.496 V 0.085 c 0,-7.346 5.395,-13.495 12.932,-13.495 7.879,0 12.847,6.149 12.847,13.41">
     </path>
    </g>
    <g transform="translate(163.862,69.0287)" id="g28">
     <path id="path30" style="fill:#0044cc;fill-opacity:1;fill-rule:nonzero;stroke:none" d="m 0,0 c 0,1.281 0.514,2.478 1.371,3.417 0.942,0.939 2.141,1.367 3.425,1.367 1.285,0 2.57,-0.428 3.512,-1.367 C 9.25,2.478 9.764,1.281 9.764,0 v -18.792 c 3.169,4.442 7.536,7.944 14.474,7.944 9.935,0 19.698,-7.858 19.698,-21.952 v -0.171 c 0,-14.009 -9.678,-21.952 -19.698,-21.952 -7.109,0 -11.477,3.502 -14.474,7.432 v -2.136 c 0,-2.648 -2.141,-4.869 -4.882,-4.869 -2.741,0 -4.882,2.136 -4.882,4.869 z m 34.001,-32.971 v 0.171 c 0,8.2 -5.566,13.496 -12.161,13.496 -6.595,0 -12.419,-5.467 -12.419,-13.496 v -0.171 c 0,-8.115 5.824,-13.496 12.419,-13.496 6.68,-0.085 12.161,5.125 12.161,13.496">
     </path>
    </g>
    <g transform="translate(213.1935,68.602)" id="g32">
     <path id="path34" style="fill:#0044cc;fill-opacity:1;fill-rule:nonzero;stroke:none" d="m 0,0 c 0,2.904 2.398,4.698 5.567,4.698 3.169,0 5.568,-1.88 5.568,-4.698 v -0.513 c 0,-2.904 -2.399,-4.783 -5.568,-4.783 C 2.398,-5.296 0,-3.332 0,-0.513 Z m 0.686,-15.717 c 0,1.281 0.427,2.563 1.37,3.417 0.942,0.939 2.141,1.452 3.425,1.452 1.286,0 2.57,-0.513 3.512,-1.452 0.943,-0.94 1.456,-2.136 1.456,-3.502 v -33.484 c 0,-2.648 -2.141,-4.868 -4.882,-4.868 -2.74,0 -4.881,2.134 -4.881,4.868 z">
     </path>
    </g>
    <g transform="translate(232.8927,66.5517)" id="g36">
     <path id="path38" style="fill:#0044cc;fill-opacity:1;fill-rule:nonzero;stroke:none" d="M 0,0 C 0,2.733 2.227,4.955 4.967,4.955 7.708,4.955 9.935,2.733 9.935,0 V -23.661 L 36.656,3.075 c 1.028,1.196 2.484,1.88 4.111,1.88 1.199,0 2.398,-0.428 3.254,-1.282 0.857,-0.854 1.371,-2.05 1.285,-3.246 0,-1.452 -0.685,-2.819 -1.798,-3.673 L 25.95,-20.073 44.963,-43.563 c 0.857,-0.939 1.371,-2.221 1.371,-3.502 0,-1.281 -0.514,-2.562 -1.456,-3.502 -0.942,-0.939 -2.227,-1.366 -3.512,-1.366 -1.97,0 -3.169,0.939 -4.196,2.306 L 19.099,-26.65 9.935,-35.448 v -11.617 c 0,-2.733 -2.227,-4.954 -4.968,-4.954 -2.74,0 -4.967,2.221 -4.967,4.954 z">
     </path>
    </g>
    <g transform="translate(290.7033,18.5473)" id="g40">
     <path id="path42" style="fill:#0044cc;fill-opacity:1;fill-rule:nonzero;stroke:none" d="m 0,0 -11.392,32.202 c -0.256,0.77 -0.427,1.623 -0.513,2.478 0,1.196 0.513,2.391 1.456,3.245 0.942,0.854 2.055,1.282 3.341,1.282 2.397,0 4.024,-1.623 4.71,-3.844 L 5.823,9.737 14.131,35.363 c 0.685,2.221 2.484,3.844 4.968,3.844 h 0.599 c 2.484,0 4.282,-1.623 4.968,-3.844 l 8.393,-25.626 8.222,25.711 c 0.685,2.05 2.141,3.759 4.71,3.759 1.199,0 2.399,-0.428 3.255,-1.282 0.857,-0.854 1.37,-1.964 1.37,-3.16 0,-0.769 -0.171,-1.452 -0.428,-2.135 L 38.626,0.171 C 37.598,-2.818 35.543,-4.186 33.23,-4.186 h -0.342 c -2.399,0 -4.454,1.368 -5.311,4.186 L 19.27,25.113 10.877,0 C 10.021,-2.818 7.965,-4.186 5.652,-4.186 H 5.31 C 2.997,-4.271 1.027,-2.904 0,0">
     </path>
    </g>
    <g transform="translate(345.8586,68.602)" id="g44">
     <path id="path46" style="fill:#0044cc;fill-opacity:1;fill-rule:nonzero;stroke:none" d="m 0,0 c 0,2.904 2.398,4.698 5.567,4.698 3.169,0 5.567,-1.88 5.567,-4.698 v -0.513 c 0,-2.904 -2.398,-4.783 -5.567,-4.783 C 2.398,-5.296 0,-3.332 0,-0.513 Z m 0.686,-15.802 c 0,1.281 0.427,2.562 1.37,3.416 0.942,0.94 2.14,1.452 3.425,1.452 1.285,0 2.57,-0.512 3.512,-1.452 0.942,-0.939 1.456,-2.135 1.456,-3.502 v -33.483 c 0,-2.649 -2.141,-4.869 -4.882,-4.869 -2.741,0 -4.881,2.135 -4.881,4.869 z">
     </path>
    </g>
    <g transform="translate(364.4435,69.0287)" id="g48">
     <path id="path50" style="fill:#0044cc;fill-opacity:1;fill-rule:nonzero;stroke:none" d="M 0,0 C 0,1.281 0.514,2.478 1.37,3.417 2.313,4.356 3.512,4.784 4.796,4.784 6.081,4.784 7.365,4.271 8.222,3.417 9.078,2.563 9.678,1.281 9.678,0 v -31.263 l 18.243,17.853 c 1.284,1.281 2.483,2.05 4.196,2.05 1.199,0 2.227,-0.513 3.083,-1.282 0.771,-0.854 1.199,-1.964 1.199,-3.074 0,-1.624 -0.77,-2.819 -2.14,-4.1 l -11.22,-10.336 12.847,-16.742 c 0.856,-1.196 1.284,-2.049 1.284,-3.246 0,-2.647 -2.055,-4.441 -4.539,-4.441 -1.97,0 -3.083,0.684 -4.282,2.135 l -12.162,16.058 -6.423,-6.064 v -7.346 c 0,-2.648 -2.142,-4.869 -4.882,-4.869 -2.74,0 -4.882,2.136 -4.882,4.869 z">
     </path>
    </g>
   </g>
  </g>
  <g id="g52">
   <g clip-path="url(#clipPath58)" id="g54">
    <g transform="translate(23.6808,93.7353)" id="g60">
     <path id="path62" style="fill:#e97e38;fill-opacity:1;fill-rule:nonzero;stroke:none" d="m 0,0 -31.5,-58.005 -17.203,9.341 31.5,58.006 z">
     </path>
    </g>
    <g transform="translate(32.9625,88.6948)" id="g64">
     <path id="path66" style="fill:#ffffff;fill-opacity:1;fill-rule:nonzero;stroke:none" d="m 0,0 -31.5,-58.005 -9.281,5.04 31.499,58.006 z">
     </path>
    </g>
    <g transform="translate(60.068,100.7172)" id="g68">
     <path id="path70" style="fill:#159f68;fill-opacity:1;fill-rule:nonzero;stroke:none" d="M 0,0 -53.929,-99.309 -69.82,-90.68 -15.891,8.629 Z">
     </path>
    </g>
   </g>
  </g>
 </g>
</svg>